<svg width="24" height="24" viewBox="0 0 24 24" fill="none" xmlns="http://www.w3.org/2000/svg">
<path d="M18 3L17.2929 2.29289C17.5647 2.02108 17.9683 1.92913 18.331 2.05637C18.6937 2.18361 18.9514 2.50752 18.9939 2.88957L18 3ZM11 18L11.7071 18.7071C11.3166 19.0976 10.6834 19.0976 10.2929 18.7071L11 18ZM9.00001 16L8.2929 15.2929L9.00001 14.5858L9.70711 15.2929L9.00001 16ZM3.70711 17.2929L3 16.5858L3.70711 17.2929ZM18 3C18.9939 2.88957 18.9939 2.8898 18.9939 2.89007C18.994 2.89019 18.994 2.89048 18.994 2.89073C18.9941 2.89123 18.9941 2.89183 18.9942 2.89255C18.9944 2.89398 18.9946 2.89585 18.9948 2.89816C18.9953 2.90276 18.996 2.9091 18.9968 2.91712C18.9985 2.93315 19.0008 2.95593 19.0036 2.9851C19.0093 3.04343 19.017 3.12736 19.0256 3.23403C19.0429 3.44726 19.0641 3.752 19.0803 4.12531C19.1127 4.87012 19.1259 5.89693 19.0476 7.0196C18.9695 8.13827 18.7988 9.37922 18.452 10.542C18.1078 11.6964 17.5689 12.8453 16.7071 13.7071L15.2929 12.2929C15.8311 11.7547 16.2422 10.9536 16.5355 9.97044C16.8262 8.99577 16.9805 7.91173 17.0524 6.8804C17.1241 5.85307 17.1123 4.90488 17.0822 4.21219C17.0672 3.86675 17.0477 3.58711 17.0322 3.39566C17.0244 3.29999 17.0177 3.22649 17.013 3.17798C17.0106 3.15373 17.0088 3.13574 17.0076 3.12436C17.007 3.11868 17.0066 3.11464 17.0063 3.1123C17.0062 3.11113 17.0061 3.11039 17.0061 3.11008C17.0061 3.10992 17.0061 3.10987 17.0061 3.10993C17.0061 3.10996 17.0061 3.11009 17.0061 3.1101C17.0061 3.11025 17.0061 3.11043 18 3ZM16.7071 13.7071C15.3071 15.1071 14.1821 16.2321 13.3446 17.0696C12.5071 17.9071 11.9571 18.4571 11.7071 18.7071L10.2929 17.2929C10.5429 17.0429 11.0929 16.4929 11.9304 15.6554C12.7679 14.8179 13.8929 13.6929 15.2929 12.2929L16.7071 13.7071ZM10.2929 18.7071L8.2929 16.7071L9.70711 15.2929L11.7071 17.2929L10.2929 18.7071ZM9.70711 16.7071L6.41423 20L5.00001 18.5858L8.2929 15.2929L9.70711 16.7071ZM3.5858 20L3 19.4142L4.41421 18L5.00001 18.5858L3.5858 20ZM3 16.5858L17.2929 2.29289L18.7071 3.70711L4.41421 18L3 16.5858ZM3 19.4142C2.21895 18.6332 2.21895 17.3668 3 16.5858L4.41421 18L4.41421 18L3 19.4142ZM6.41423 20C5.63318 20.781 4.36685 20.7811 3.5858 20L5.00001 18.5858L5.00001 18.5858L6.41423 20Z" fill="currentColor"/>
<mask id="path-3-outside-1" maskUnits="userSpaceOnUse" x="15.1796" y="12.5" width="7" height="11" fill="black">
<rect fill="white" x="15.1796" y="12.5" width="7" height="11"/>
<path d="M18.5 16.5C17.6667 17.8333 16 21 18.5 21C21 21 19.3333 17.8333 18.5 16.5Z"/>
</mask>
<path d="M18.5 16.5L20.196 15.44L18.5 12.7264L16.804 15.44L18.5 16.5ZM16.804 15.44C16.3746 16.1271 15.583 17.5032 15.2956 18.8251C15.1598 19.4498 15.034 20.5048 15.5934 21.4797C16.2596 22.6408 17.4577 23 18.5 23V19C18.387 19 18.4466 18.9806 18.5904 19.0474C18.7613 19.1267 18.9418 19.2781 19.0629 19.489C19.2577 19.8286 19.1318 20.0085 19.2043 19.6749C19.2609 19.4145 19.3952 19.0541 19.5972 18.6367C19.792 18.2342 20.0143 17.8508 20.196 17.56L16.804 15.44ZM18.5 23C19.5423 23 20.7404 22.6408 21.4066 21.4797C21.966 20.5048 21.8402 19.4498 21.7044 18.8251C21.417 17.5032 20.6254 16.1271 20.196 15.44L16.804 17.56C16.9857 17.8508 17.208 18.2342 17.4028 18.6368C17.6048 19.0541 17.739 19.4145 17.7957 19.6749C17.8682 20.0085 17.7423 19.8286 17.9372 19.489C18.0582 19.2781 18.2387 19.1267 18.4096 19.0474C18.5534 18.9806 18.613 19 18.5 19V23Z" fill="currentColor" mask="url(#path-3-outside-1)"/>
</svg>
