<svg xmlns="http://www.w3.org/2000/svg" width="182" height="183" viewBox="0 0 182 183" fill="currentColor" stroke="currentColor" stroke-width="0">
<path fill-rule="evenodd" clip-rule="evenodd" d="M91 75.4982C77.8812 75.4982 67.4466 85.6816 67.4466 98C67.4466 110.318 77.8812 120.502 91 120.502C104.119 120.502 114.553 110.318 114.553 98C114.553 85.6816 104.119 75.4982 91 75.4982ZM106.455 99.0593C107.544 98.7974 108.65 99.4271 108.924 100.466C109.16 101.355 109.427 103.05 109.626 104.409C109.728 105.113 109.818 105.767 109.882 106.245C109.914 106.484 109.94 106.679 109.958 106.815L109.978 106.973L109.985 107.029L107.966 107.263C109.985 107.03 109.985 107.029 109.985 107.029C110.042 107.477 109.933 107.931 109.678 108.311C108.015 110.781 105.933 112.182 103.663 112.73C101.448 113.265 99.2816 112.934 97.485 112.359C95.6829 111.782 94.1221 110.918 93.0321 110.221C92.523 109.895 92.1043 109.597 91.7977 109.369L91.7679 109.389C91.4256 109.621 90.9367 109.936 90.3317 110.284C89.131 110.974 87.4274 111.82 85.4743 112.382C83.5277 112.942 81.227 113.25 78.894 112.744C76.5103 112.226 74.2397 110.888 72.3843 108.413C72.0791 108.005 71.9479 107.497 72.0188 106.996L72.0269 106.939L72.0497 106.781C72.0694 106.645 72.098 106.449 72.1338 106.21C72.2051 105.731 72.3052 105.076 72.4198 104.371C72.6401 103.015 72.94 101.306 73.2062 100.401C73.509 99.3725 74.6038 98.7794 75.6516 99.0767C76.6994 99.3741 77.3033 100.449 77.0005 101.478C76.8156 102.107 76.5513 103.559 76.32 104.982C76.2136 105.637 76.1197 106.25 76.0507 106.711C77.2245 108.041 78.4964 108.685 79.7462 108.956C81.2213 109.276 82.8132 109.106 84.3643 108.659C85.9089 108.215 87.3082 107.528 88.336 106.937C88.7545 106.696 89.1037 106.476 89.3674 106.302L90.0995 103.152C90.1477 102.944 90.2281 102.752 90.3343 102.58C87.8511 100.993 79.308 95.3625 80.0449 93.4375C80.2816 92.8189 80.4532 92.0303 80.6313 91.2118C81.101 89.0533 81.6158 86.6875 83.4886 86.6875C84.7854 86.6875 86.033 86.2621 87.2755 85.8385C88.5078 85.4184 89.735 85 91 85C92.265 85 93.4921 85.4184 94.7244 85.8385C95.9669 86.2621 97.2146 86.6875 98.5115 86.6875C100.384 86.6875 100.899 89.0528 101.368 91.2111C101.547 92.0298 101.718 92.8187 101.955 93.4375C102.6 95.1236 96.1266 99.6525 92.8411 101.817C93.5436 102.129 93.9972 102.82 94 103.574C94.0192 103.644 94.0346 103.716 94.0459 103.789L94.4522 106.423C94.6765 106.586 94.9622 106.785 95.2985 107C96.2108 107.584 97.4382 108.253 98.7791 108.682C100.125 109.113 101.457 109.261 102.664 108.97C103.685 108.723 104.794 108.121 105.852 106.771L105.848 106.737C105.785 106.268 105.697 105.629 105.597 104.944C105.39 103.524 105.151 102.057 104.98 101.414C104.706 100.375 105.366 99.3212 106.455 99.0593Z"/>
<path d="M49.5 88C55.2201 88 59.8571 83.5229 59.8571 78C59.8571 72.9019 55.9059 68.6948 50.7988 68.0779C51.5571 69.1967 52 70.5466 52 72C52 75.866 48.866 79 45 79C42.6671 79 40.6007 77.8588 39.3287 76.1041C39.2067 76.718 39.1428 77.3518 39.1428 78C39.1428 83.5229 43.7799 88 49.5 88Z"/>
<path d="M140.857 78C140.857 83.5229 136.22 88 130.5 88C124.78 88 120.143 83.5229 120.143 78C120.143 77.3518 120.207 76.718 120.329 76.1041C121.601 77.8588 123.667 79 126 79C129.866 79 133 75.866 133 72C133 70.5466 132.557 69.1967 131.799 68.0779C136.906 68.6948 140.857 72.9019 140.857 78Z"/>
<path fill-rule="evenodd" clip-rule="evenodd" d="M18.2185 142.512L91.1566 177.408L163.889 142.075L167.658 127.809C165.564 88.7377 159.432 40.3121 139.023 26.336C116.682 11.0378 51.1534 11.5574 36.3716 35.7778C26.1112 52.5898 17.367 83.6017 11.4065 113.46L18.2185 142.512ZM63 98C63 82.9793 75.6467 71 91 71C106.353 71 119 82.9793 119 98C119 113.021 106.353 125 91 125C75.6467 125 63 113.021 63 98ZM131.568 42.0139C127.214 41.8275 122.815 43.5209 119.691 46.6198C118.803 47.5006 118.766 48.9668 119.609 49.8947C120.452 50.8226 121.856 50.8607 122.744 49.9799C124.978 47.7638 128.202 46.5067 131.387 46.6431C134.759 46.7874 138.031 48.5017 140.054 51.1337C140.82 52.1313 142.216 52.2907 143.171 51.4897C144.126 50.6887 144.278 49.2307 143.512 48.2331C140.662 44.5258 136.181 42.2114 131.568 42.0139ZM49.6241 46.6428C52.6816 46.5104 55.8096 47.7301 57.9994 49.9275C58.9065 50.8378 60.3865 50.847 61.305 49.948C62.2235 49.049 62.2328 47.5823 61.3256 46.672C58.219 43.5545 53.8132 41.8239 49.42 42.0142C44.7653 42.2158 40.2911 44.5763 37.4701 48.2902C36.6937 49.3123 36.9004 50.7647 37.9318 51.5341C38.9632 52.3035 40.4287 52.0987 41.2051 51.0765C43.1992 48.4512 46.3869 46.783 49.6241 46.6428ZM49.5 64C47.5092 64 45.6121 64.3874 43.8852 65.0883C41.8622 65.412 40.1287 66.6025 39.0774 68.2669C36.5532 70.7862 35 74.218 35 78C35 85.732 41.4919 92 49.5 92C57.5081 92 64 85.732 64 78C64 70.268 57.5081 64 49.5 64ZM124.885 65.0883C126.612 64.3874 128.509 64 130.5 64C138.508 64 145 70.268 145 78C145 85.732 138.508 92 130.5 92C122.492 92 116 85.732 116 78C116 74.2179 117.553 70.7862 120.077 68.2669C121.129 66.6025 122.862 65.412 124.885 65.0883Z"/>
</svg>
