<svg width="577" height="320" viewBox="0 0 577 320" fill="none" xmlns="http://www.w3.org/2000/svg">
<path d="M63.3563 174.478C61.7427 174.164 60.0766 174.253 58.5055 174.737L13.4696 188.603C6.88641 190.63 4.27565 198.55 8.36303 204.094L25.3841 227.182C26.8407 229.158 28.9731 230.529 31.3752 231.034L114.433 248.501C115.992 248.829 117.607 248.78 119.142 248.357L170.964 234.109C177.73 232.249 180.526 224.181 176.362 218.533L159.668 195.888C158.18 193.87 155.988 192.484 153.527 192.006L63.3563 174.478Z" fill="#ACD8E3" stroke="#3088B2" stroke-width="10" stroke-linecap="round" stroke-linejoin="round"/>
<path d="M316.356 240.478C314.743 240.164 313.077 240.253 311.506 240.737L266.47 254.603C259.886 256.63 257.276 264.55 261.363 270.094L278.384 293.182C279.841 295.158 281.973 296.529 284.375 297.034L367.433 314.501C368.992 314.829 370.607 314.78 372.142 314.357L423.964 300.109C430.73 298.249 433.526 290.181 429.362 284.533L412.668 261.888C411.18 259.87 408.988 258.484 406.527 258.006L316.356 240.478Z" fill="#ACD8E3" stroke="#3088B2" stroke-width="10" stroke-linecap="round" stroke-linejoin="round"/>
<path d="M235 37.5L264 5C276.023 16.1321 284.504 29.1116 290 44.5C320.936 49.3846 366.242 55.1769 392 74L439 53C445 65 447.5 80.5 445 100.5C479 122 501 175.5 501 212.5C501 224.822 494.667 245.667 496.5 256L429.5 237.5C413.333 247.167 363.9 264.1 343.5 252.5C323.1 240.9 333.333 224.833 335 218.5L174.5 175C158.167 183.833 118.5 199.7 90.5 192.5C73.5751 188.148 80.3573 167.019 90.5 150.5C101.332 132.859 116.7 119.35 134 100.5C160.8 71.3 212.5 46.3333 235 37.5Z" fill="white"/>
<path d="M335 218.5L174.5 175C158.167 183.833 118.5 199.7 90.5 192.5C73.5751 188.148 80.3573 167.019 90.5 150.5M335 218.5C338.6 210.5 344.5 205.167 347 203.5M335 218.5C333.333 224.833 323.1 240.9 343.5 252.5C363.9 264.1 413.333 247.167 429.5 237.5L496.5 256M496.5 256C494.667 245.667 501 224.822 501 212.5C501 175.5 479 122 445 100.5C447.5 80.5 445 65 439 53L392 74C366.242 55.1769 320.936 49.3846 290 44.5C284.504 29.1116 276.023 16.1321 264 5L235 37.5C212.5 46.3333 160.8 71.3 134 100.5C116.7 119.35 101.332 132.859 90.5 150.5M496.5 256L571.5 278M90.5 150.5L21.5 131M244.5 150.5C248 158.333 258.7 169.3 273.5 150.5C273.5 166.906 282.5 170 297.5 164" stroke="black" stroke-width="10" stroke-linecap="round" stroke-linejoin="round"/>
<circle cx="209" cy="127" r="9" fill="black"/>
<circle cx="339" cy="168" r="9" fill="black"/>
</svg>
